<svg width="8" height="8" viewBox="0 0 8 8" fill="none" xmlns="http://www.w3.org/2000/svg">
<path fill-rule="evenodd" clip-rule="evenodd" d="M0.822959 2.323C0.846181 2.29971 0.873769 2.28124 0.904142 2.26864C0.934514 2.25604 0.967075 2.24955 0.999959 2.24955C1.03284 2.24955 1.0654 2.25604 1.09578 2.26864C1.12615 2.28124 1.15374 2.29971 1.17696 2.323L3.99996 5.1465L6.82296 2.323C6.8462 2.29975 6.8738 2.28131 6.90417 2.26873C6.93454 2.25616 6.96709 2.24968 6.99996 2.24968C7.03283 2.24968 7.06538 2.25616 7.09575 2.26873C7.12612 2.28131 7.15371 2.29975 7.17696 2.323C7.2002 2.34624 7.21864 2.37384 7.23122 2.4042C7.2438 2.43457 7.25027 2.46712 7.25027 2.5C7.25027 2.53287 7.2438 2.56542 7.23122 2.59579C7.21864 2.62616 7.2002 2.65375 7.17696 2.677L4.17696 5.677C4.15374 5.70028 4.12615 5.71875 4.09578 5.73135C4.0654 5.74396 4.03284 5.75044 3.99996 5.75044C3.96707 5.75044 3.93451 5.74396 3.90414 5.73135C3.87377 5.71875 3.84618 5.70028 3.82296 5.677L0.822959 2.677C0.799677 2.65377 0.781206 2.62619 0.768602 2.59581C0.755999 2.56544 0.749512 2.53288 0.749512 2.5C0.749512 2.46711 0.755999 2.43455 0.768602 2.40418C0.781206 2.37381 0.799677 2.34622 0.822959 2.323Z" fill="white" stroke="white" stroke-width="0.7"/>
</svg>
